<?xml version="1.0" encoding="UTF-8"?>
<svg width="120" height="120" viewBox="0 0 72 72" xmlns="http://www.w3.org/2000/svg">
  <path d="M71.4 47.1c-12-12.7-20.8-28-25.6-44.8-.4-1.4-1.6-2.3-3-2.3H29.5c-1.4 0-2.6 1-3 2.3C21.7 19.1 12.9 34.4.9 47.1c-1 1-1.2 2.6-.5 3.8L7 62.4c.7 1.2 2.1 1.8 3.5 1.5 8.4-2.1 17-3.1 25.6-3.1 8.6 0 17.3 1 25.6 3.1 1.4.4 2.8-.3 3.5-1.5l6.6-11.6c.7-1.2.5-2.7-.4-3.7zm-14.7 9.7l-46.6-10c-.2-.1-.4-.3-.3-.5 0-.1 0-.1.1-.2l31.9-35.8c.1-.2.4-.2.5 0l.1.1 14.8 45.8c.1.2-.1.5-.3.5-.1.1-.1.1-.2.1z" fill="#fa4616"/>
</svg>
